<?xml version="1.0" standalone="no"?><!DOCTYPE svg PUBLIC "-//W3C//DTD SVG 1.1//EN" "http://www.w3.org/Graphics/SVG/1.1/DTD/svg11.dtd"><svg t="1701682086250" class="icon" viewBox="0 0 1024 1024" version="1.1" xmlns="http://www.w3.org/2000/svg" p-id="4258" xmlns:xlink="http://www.w3.org/1999/xlink" width="200" height="200"><path d="M512 905.728c-123.392-76.288-217.088-166.4-286.208-274.432-53.248-83.968-88.064-174.08-107.008-275.456-10.752-58.368-13.312-104.448-13.824-169.472 118.784-52.224 270.848-83.456 409.088-83.456 136.704 0 283.648 30.208 406.016 83.456-2.048 65.024-4.608 111.104-15.36 169.472-19.456 100.864-55.296 193.536-107.008 275.456-70.144 108.032-166.4 200.192-285.696 274.432zM32.256 141.824c0 163.84-2.56 571.392 480.256 849.92 482.304-278.528 480.256-686.08 480.256-849.92C842.24 67.072 662.016 31.744 512 31.744S181.76 67.072 32.256 141.824z" fill="#1ca525" p-id="4259"></path><path d="M504.832 664.064l299.52-367.616c-20.992-16.384-41.984-4.608-51.712 4.608L502.784 537.6 409.088 434.688c-44.544-46.592-105.472-11.776-119.296-2.56l215.04 231.936" fill="#1ca525" p-id="4260"></path></svg>