<?xml version="1.0" standalone="no"?><!DOCTYPE svg PUBLIC "-//W3C//DTD SVG 1.1//EN" "http://www.w3.org/Graphics/SVG/1.1/DTD/svg11.dtd"><svg t="1701835220483" class="icon" viewBox="0 0 1024 1024" version="1.1" xmlns="http://www.w3.org/2000/svg" p-id="11472" xmlns:xlink="http://www.w3.org/1999/xlink" width="200" height="200"><path d="M269.85 388.4c2.94 52.57 12.75 119.58 39.69 192.76a656.746 656.746 0 0 0 35.53 79.73c19.53 1.94 39.83 3.37 60.85 4.18 74.73 2.86 142.6-2.87 201.83-12.47-20.34-0.9-40.84-1.92-61.48-3.07-47.21-2.63-93.58-5.84-139.08-9.56 39.39-5.4 94.42-17.69 154.07-47.47 38.3-19.12 68.96-40.68 92.38-59.87a871.793 871.793 0 0 0 20.32 67.35c21.01 60.7 46.51 112.72 71.78 155.99-2.43-80.12-11.43-172.39-32.78-272.99A1534.52 1534.52 0 0 0 677.52 347c-13.41 37.14-45.23 109.8-116.56 175.52-69.42 63.96-142.13 89.91-179.98 100.6a2812.247 2812.247 0 0 0-69.67-153.55 2804.824 2804.824 0 0 0-41.46-81.17z" p-id="11473"></path><path d="M543.28 320.67m-109.9 0a109.9 109.9 0 1 0 219.8 0 109.9 109.9 0 1 0-219.8 0Z" p-id="11474"></path><path d="M540.57 324.75m-81.1 0a81.1 81.1 0 1 0 162.2 0 81.1 81.1 0 1 0-162.2 0Z" p-id="11475"></path></svg>