<?xml version="1.0" standalone="no"?><!DOCTYPE svg PUBLIC "-//W3C//DTD SVG 1.1//EN" "http://www.w3.org/Graphics/SVG/1.1/DTD/svg11.dtd"><svg t="1701676304227" class="icon" viewBox="0 0 1024 1024" version="1.1" xmlns="http://www.w3.org/2000/svg" p-id="43500" xmlns:xlink="http://www.w3.org/1999/xlink" width="200" height="200"><path d="M62.85824 512.56832a448.4608 448.4608 0 1 0 896.93184 0 448.4608 448.4608 0 0 0-896.93184 0z" fill="#F97F41" p-id="43501"></path><path d="M246.28224 484.20864s3.24608-81.7664 11.85792-140.0832c8.61184-58.29632 32.8704-156.90752 32.8704-156.90752l93.7472 162.65216-138.47552 134.33856z" fill="#FBF5EF" p-id="43502"></path><path d="M266.49088 465.0496s1.84832-46.56128 6.74816-79.75936c4.89984-33.19808 18.71872-89.344 18.71872-89.344L345.344 388.56704l-78.848 76.4928z" fill="#F8C8A4" p-id="43503"></path><path d="M775.93088 484.20864s-3.2512-81.7664-11.86304-140.0832c-8.60672-58.30656-32.8704-156.90752-32.8704-156.90752l-93.7472 162.65216 138.48064 134.33856z" fill="#FBF5EF" p-id="43504"></path><path d="M755.72224 465.0496s-1.85344-46.56128-6.75328-79.75936-18.71872-89.344-18.71872-89.344l-53.38112 92.61568 78.85312 76.4928z" fill="#F8C8A4" p-id="43505"></path><path d="M840.92928 654.65856c32.8704 4.70016 46.3104-1.32608 35.22048-5.79072-15.06816-6.04672-22.70208-3.8656-36.38784-18.62656-14.8736-16.02048-40.79104-77.34272-40.79104-77.34272l-0.02048-0.01024c-24.85248-113.05984-112.0512-216.61696-249.66144-232.40704-0.44032-4.25984 0.35328-9.5744 2.50368-16.30208 5.35552-16.70656-3.18464-9.64096-18.52416 6.77888a292.42368 292.42368 0 0 1-7.36768 7.64416 315.62752 315.62752 0 0 0-6.90176-0.256c0.3328-4.1472 2.26304-11.4944 8.40192-24.4736 12.94848-27.392-3.77856-15.55456-16.96256-0.26112-5.98016 6.9376-24.09984 18.5088-37.53984 26.5984-138.7264 14.9504-216.40704 108.27264-251.98592 232.68864l-0.02048 0.01024s-25.92256 61.312-40.79104 77.34272c-13.70112 14.76096-21.31968 12.5696-36.39296 18.62656-11.08992 4.45952 2.3552 10.48064 35.2256 5.79072 32.8704-4.70016 9.1136 17.75104 4.3008 22.30272-7.67488 7.24992-21.48352 19.07712-31.30368 24.64768-16.14848 9.14944-1.77152 11.5712 1.16736 11.74016 10.25024 0.59904 46.47936-8.73984 41.09312 0-15.74912 25.51296-34.70336 79.9488-34.78016 80.19968 82.16064 103.28064 208.91648 169.49248 351.15008 169.49248 141.50656 0 267.6992-65.54112 349.9008-167.92064l0.01024-1.5616s-19.00032-54.64064-34.7904-80.20992c-5.4016-8.73984 30.82752 0.59904 41.088 0 2.93888-0.16896 17.32096-2.59072 1.17248-11.74016-9.82016-5.57056-23.63392-17.39776-31.30368-24.64768-4.82816-4.56192-28.57984-27.01312 4.29056-22.31296z" fill="#FBF5EF" p-id="43506"></path><path d="M326.656 563.51232a51.57376 51.57376 0 1 0 103.14752 0 51.57376 51.57376 0 0 0-103.1424 0z" fill="#FFFFFF" p-id="43507"></path><path d="M378.22976 616.59136c-29.27104 0-53.0688-23.81312-53.0688-53.07904 0-29.27104 23.808-53.07392 53.0688-53.07392s53.0688 23.81312 53.0688 53.07392c0 29.25568-23.79776 53.07904-53.0688 53.07904z m0-103.15264c-27.60704 0-50.0736 22.46144-50.0736 50.0736 0 27.60704 22.46656 50.07872 50.0736 50.07872 27.61216 0 50.0736-22.46144 50.0736-50.07872 0-27.6224-22.4512-50.0736-50.0736-50.0736z" fill="#E8D7D4" p-id="43508"></path><path d="M342.4768 563.51232a35.75808 35.75808 0 0 0 35.75296 35.74784 35.75808 35.75808 0 0 0 35.75296-35.74784 35.7632 35.7632 0 0 0-35.75296-35.75296 35.75808 35.75808 0 0 0-35.74784 35.75296z" fill="#5FB7FF" p-id="43509"></path><path d="M378.22976 549.78048a12.28288 12.28288 0 0 0 12.288 12.288 12.29312 12.29312 0 1 0-12.288-12.288zM592.48128 563.51232a51.56864 51.56864 0 1 0 103.13728 0 51.56864 51.56864 0 0 0-103.13728 0z" fill="#FFFFFF" p-id="43510"></path><path d="M644.04992 616.59136c-29.27104 0-53.07904-23.81312-53.07904-53.07904 0-29.27104 23.808-53.07392 53.07904-53.07392 29.27104 0 53.07904 23.81312 53.07904 53.07392 0 29.25568-23.81824 53.07904-53.07904 53.07904z m0-103.15264c-27.61216 0-50.07872 22.46144-50.07872 50.0736 0 27.60704 22.45632 50.07872 50.07872 50.07872 27.6224 0 50.07872-22.46144 50.07872-50.07872 0-27.6224-22.46656-50.0736-50.07872-50.0736z" fill="#E8D7D4" p-id="43511"></path><path d="M608.30208 563.51232a35.74784 35.74784 0 1 0 71.49056 0 35.74784 35.74784 0 0 0-71.49056 0z" fill="#DEA614" p-id="43512"></path><path d="M646.14912 549.78048a12.288 12.288 0 1 0 24.57088 0 12.288 12.288 0 0 0-24.57088 0z" fill="#FFFFFF" p-id="43513"></path><path d="M482.62144 635.97056c0.01024-8.25856 55.69024-6.97856 55.8592-0.01024 0.31744 13.04064-18.54976 31.49824-28.3136 31.5392-9.70752 0.04096-27.55584-17.25952-27.5456-31.52896z" fill="#F8C8A4" p-id="43514"></path><path d="M479.88736 727.82848l-2.2272-2.00704 31.01184-34.39104v-26.16832h3.00032v27.32032l-31.78496 35.24608z" fill="#F8C8A4" p-id="43515"></path><path d="M540.83072 727.83872l-32.16896-35.26656 0.38912-27.33056 3.00032 0.04096-0.384 26.14784 31.38048 34.39104-2.21696 2.01728z" fill="#F8C8A4" p-id="43516"></path></svg>