<?xml version="1.0" standalone="no"?><!DOCTYPE svg PUBLIC "-//W3C//DTD SVG 1.1//EN" "http://www.w3.org/Graphics/SVG/1.1/DTD/svg11.dtd"><svg t="1701676110740" class="icon" viewBox="0 0 1024 1024" version="1.1" xmlns="http://www.w3.org/2000/svg" p-id="39345" xmlns:xlink="http://www.w3.org/1999/xlink" width="200" height="200"><path d="M428.373333 859.306667c0-11.9296 3.976533-22.186667 11.946667-30.72 8.533333-7.970133 18.773333-11.946667 30.72-11.946667s21.896533 3.976533 29.866667 11.946667c8.533333 8.533333 12.8 18.7904 12.8 30.72 0 11.946667-4.266667 21.896533-12.8 29.866666-7.970133 8.533333-17.92 12.8-29.866667 12.8s-22.186667-4.266667-30.72-12.8c-7.970133-7.970133-11.946667-17.92-11.946667-29.866666z m-44.373333 0c0 11.946667-4.266667 21.896533-12.8 29.866666-7.970133 8.533333-17.92 12.8-29.866667 12.8s-22.186667-4.266667-30.72-12.8c-7.970133-7.970133-11.946667-17.92-11.946666-29.866666 0-11.9296 3.976533-22.186667 11.946666-30.72 8.533333-7.970133 18.773333-11.946667 30.72-11.946667s21.896533 3.976533 29.866667 11.946667c8.533333 8.533333 12.8 18.773333 12.8 30.72z" p-id="39346" fill="#1296db"></path><path d="M853.333333 961.706667H170.666667c-66.030933 0-102.4-36.369067-102.4-102.4v-85.333334c0-66.030933 36.369067-102.4 102.4-102.4h102.4v-151.893333a17.066667 17.066667 0 0 1 17.066666-17.066667h102.4a17.066667 17.066667 0 0 1 17.066667 17.066667v151.876267h443.733333c66.030933 0 102.4 36.369067 102.4 102.4v85.333333c0 66.048-36.369067 102.417067-102.4 102.417067z m-682.666666-256c-47.223467 0-68.266667 21.0432-68.266667 68.266666v85.333334c0 47.223467 21.0432 68.266667 68.266667 68.266666h682.666666c47.223467 0 68.266667-21.0432 68.266667-68.266666v-85.333334c0-47.223467-21.0432-68.266667-68.266667-68.266666H170.666667z m136.533333-34.133334h68.266667v-134.826666h-68.266667v134.826666z m-141.653333-208.213333a17.015467 17.015467 0 0 1-12.066134-5.000533l-5.12-5.12C95.812267 400.708267 68.864 336.6912 68.266667 262.9632a16.554667 16.554667 0 0 1 0.136533-2.269867 16.725333 16.725333 0 0 1-0.136533-2.269866c0.597333-74.274133 27.5456-138.581333 80.093866-191.1296a17.0496 17.0496 0 1 1 24.132267 24.132266C125.866667 138.052267 102.929067 192.768 102.4 258.696533c0 0.682667-0.0512 1.3312-0.136533 1.9968a15.274667 15.274667 0 0 1 0.136533 1.9968c0.529067 65.365333 23.466667 119.790933 70.0928 166.417067l5.12 5.12A17.0496 17.0496 0 0 1 165.546667 463.36z m356.693333-5.12a17.0496 17.0496 0 0 1-12.066133-29.1328c47.172267-47.172267 70.0928-102.4 70.0928-168.840533 0-64.290133-21.3504-117.947733-65.245867-164.010667a17.066667 17.066667 0 1 1 24.712533-23.552C589.2608 124.706133 614.4 187.8016 614.4 260.266667c0 74.9056-26.948267 139.8272-80.093867 192.9728a17.066667 17.066667 0 0 1-12.066133 5.000533z m-296.106667-54.613333a17.015467 17.015467 0 0 1-12.066133-5.000534l-5.973333-5.973333C171.9296 356.5056 153.6 311.9616 153.6 260.266667c0-51.6096 18.295467-96.4096 54.391467-133.137067a17.066667 17.066667 0 1 1 24.354133 23.9104C202.325333 181.589333 187.733333 217.309867 187.733333 260.266667c0 42.9056 14.557867 78.318933 44.4928 108.253866l5.973334 5.973334a17.0496 17.0496 0 0 1-12.066134 29.1328z m235.52-5.973334a17.1008 17.1008 0 0 1-11.963733-29.252266c29.934933-29.422933 44.7488-64.017067 45.243733-105.796267v-4.0448c-0.512-39.6288-13.568-73.0624-39.918933-102.007467a17.066667 17.066667 0 0 1 25.2416-22.9888c31.778133 34.901333 48.213333 76.868267 48.827733 124.7744v4.488534c-0.6144 50.7392-19.285333 94.378667-55.4496 129.928533a17.066667 17.066667 0 0 1-11.9808 4.898133z" p-id="39347" fill="#1296db"></path><path d="M307.2 365.226667h68.266667v154.453333h-68.266667z" p-id="39348" fill="#1296db"></path><path d="M341.333333 399.36a34.133333 34.133333 0 0 1-34.133333-34.133333V176.64a34.133333 34.133333 0 0 1 68.266667 0V365.226667a34.133333 34.133333 0 0 1-34.133334 34.133333zM785.066667 944.64h-34.133334v-153.6H273.066667v153.6h-34.133334v-170.666667a17.066667 17.066667 0 0 1 17.066667-17.066666h512a17.066667 17.066667 0 0 1 17.066667 17.066666v170.666667z" p-id="39349" fill="#1296db"></path></svg>