<?xml version="1.0" standalone="no"?><!DOCTYPE svg PUBLIC "-//W3C//DTD SVG 1.1//EN" "http://www.w3.org/Graphics/SVG/1.1/DTD/svg11.dtd"><svg t="1701675815071" class="icon" viewBox="0 0 1024 1024" version="1.1" xmlns="http://www.w3.org/2000/svg" p-id="26456" xmlns:xlink="http://www.w3.org/1999/xlink" width="200" height="200"><path d="M613.37082815 167.33918429c8.68892813-11.5852375 20.27416563-20.27416563 30.41124845-30.41124845l21.72232031-21.72232032c4.34446406-4.34446406 11.5852375-8.68892813 17.37785626-11.5852375 5.79261875 2.89630938 11.5852375 2.89630938 17.37785625 0 18.82601094-4.34446406 26.06678438-17.37785625 17.37785626-34.75571251-13.03339219-24.61862969-41.99648595-7.24077344-43.44464064 14.48154688-1.44815469 4.34446406 0 8.68892813 1.44815469 10.13708282-5.79261875 2.89630938-10.13708282 7.24077344-17.37785626 11.5852375l-23.170475 23.170475c-10.13708282 10.13708282-21.72232032 18.82601094-31.85940313 31.85940314-17.37785625 20.27416563-31.85940313 43.44464064-43.44464064 66.61511564-2.89630938 8.68892813-8.68892813 17.37785625-11.5852375 28.96309376-2.89630938 0-7.24077344-1.44815469-11.58523751 0 0-11.5852375 2.89630938-23.17047501 4.34446407-33.30755782 4.34446406-24.61862969 13.03339219-50.68541408 23.170475-72.4077344 7.24077344-13.03339219 15.92970157-24.61862969 23.17047501-37.65202188 8.68892813-14.48154688 17.37785625-31.85940313 30.41124844-41.99648595 4.34446406 1.44815469 11.5852375 0 17.37785626-2.89630938 17.37785625-8.68892813 20.27416563-23.17047501 7.24077344-39.10017657-18.82601094-21.72232032-41.99648595 1.44815469-39.10017657 24.6186297 1.44815469 4.34446406 2.89630938 8.68892813 4.34446406 10.13708281-13.03339219 13.03339219-20.27416563 28.96309376-30.41124845 41.99648595-7.24077344 13.03339219-15.92970157 24.61862969-23.170475 37.65202188-11.5852375 23.17047501-20.27416563 49.23725939-26.06678438 75.30404377-2.89630938 11.5852375-4.34446406 24.61862969-4.34446407 39.10017657l-1.44815468 1.44815469c-1.44815469-4.34446406-1.44815469-10.13708282-2.89630938-14.48154688-8.68892813-46.34095001-15.92970157-99.92267346-4.34446406-146.26362347 2.89630938 0 4.34446406-1.44815469 8.68892812-2.89630938 17.37785625-8.68892813 20.27416563-23.17047501 7.24077344-39.10017657-18.82601094-21.72232032-41.99648595 1.44815469-39.10017657 24.61862969 1.44815469 10.13708282 5.79261875 14.48154688 11.5852375 17.37785626-10.13708282 47.7891047-2.89630938 101.37082815 5.79261875 147.71177816 1.44815469 4.34446406 1.44815469 10.13708282 2.89630938 17.37785626l-2.89630938 2.89630937c-2.89630938-2.89630938-5.79261875-5.79261875-7.24077344-10.13708281l-8.68892812-8.68892813c-5.79261875-5.79261875-8.68892813-11.5852375-14.48154688-17.37785625-36.2038672-50.68541408-40.54833126-101.37082815-39.10017657-163.64147973 4.34446406-1.44815469 10.13708282-4.34446406 13.03339219-10.13708282 11.5852375-14.48154688 10.13708282-30.41124845-8.68892813-37.65202188-26.06678438-11.5852375-37.65202188 20.27416563-24.61862969 39.10017657l8.68892812 8.68892813c-1.44815469 62.27065158 2.89630938 115.85237503 41.99648595 169.43409848 4.34446406 7.24077344 10.13708282 13.03339219 14.48154688 17.37785625l8.68892813 8.68892813c2.89630938 2.89630938 5.79261875 5.79261875 7.24077344 10.13708281-2.89630938 2.89630938-7.24077344 7.24077344-8.68892813 11.58523751-26.06678438-14.48154688-47.7891047-33.30755782-68.06327033-53.58172345-11.5852375-11.5852375-24.61862969-24.61862969-34.75571251-37.65202189-21.72232032-24.61862969-40.54833126-52.13356876-52.13356876-81.09666252 5.79261875-2.89630938 8.68892813-8.68892813 10.13708281-15.92970157 4.34446406-18.82601094-2.89630938-31.85940313-23.170475-31.85940313-28.96309376 0-27.51493907 33.30755782-7.24077344 44.89279532 2.89630938 2.89630938 5.79261875 2.89630938 8.68892812 2.89630938 13.03339219 33.30755782 31.85940313 60.82249689 55.02987814 86.88928127 10.13708282 13.03339219 23.17047501 26.06678438 34.75571251 37.65202189 21.72232032 21.72232032 43.44464064 40.54833126 70.95957971 56.47803282 0 0-1.44815469 1.44815469 0 2.89630938-15.92970157-7.24077344-33.30755782-15.92970157-49.23725939-23.17047501-57.92618751-28.96309376-115.85237503-52.13356876-182.46749067-52.13356876-1.44815469-4.34446406-2.89630938-5.79261875-5.79261875-8.68892813-18.82601094-21.72232032-41.99648595 1.44815469-39.10017657 24.6186297 4.34446406 18.82601094 17.37785625 20.27416563 30.41124844 13.03339219 8.68892813-5.79261875 14.48154688-11.5852375 15.92970157-18.82601094 62.27065158 1.44815469 117.30052972 21.72232032 175.22671723 50.68541407 15.92970157 7.24077344 31.85940313 17.37785625 49.23725939 23.17047501-1.44815469 1.44815469-1.44815469 4.34446406-1.44815469 4.34446406-7.24077344-1.44815469-15.92970157-1.44815469-23.17047501-2.89630938-66.61511564-11.5852375-128.88576722-27.51493907-195.50088286-4.34446406-11.5852375-11.5852375-33.30755782-4.34446406-39.10017657 13.03339219-7.24077344 18.82601094 4.34446406 27.51493907 18.82601094 27.51493907 18.82601094 1.44815469 30.41124845-7.24077344 27.51493907-27.51493907-1.44815469-1.44815469 0-2.89630938-1.44815469-4.34446406 62.27065158-21.72232032 121.64499378-5.79261875 188.26010943 5.79261875 7.24077344 1.44815469 14.48154688 2.89630938 23.170475 2.89630938-14.48154688 2.89630938-27.51493907 10.13708282-39.10017657 15.92970156-47.7891047 21.72232032-94.13005471 39.10017657-131.7820766 70.95957971-11.5852375 8.68892813-20.27416563 20.27416563-30.41124844 33.30755782-15.92970157-4.34446406-28.96309376 14.48154688-26.06678438 31.85940313 4.34446406 18.82601094 17.37785625 20.27416563 30.41124844 13.03339219 17.37785625-8.68892813 20.27416563-23.17047501 7.24077344-39.10017657l-2.89630938-2.89630938c8.68892813-11.5852375 18.82601094-21.72232032 27.51493907-30.41124844 36.2038672-30.41124845 81.09666252-49.23725939 130.33392191-69.51142502 11.5852375-5.79261875 23.17047501-11.5852375 34.75571251-14.48154688 0 8.68892813 2.89630938 17.37785625 5.79261875 23.17047501l-1.44815469 1.44815469c-27.51493907 24.61862969-50.68541408 56.47803283-70.9595797 85.44112658-17.37785625 23.17047501-37.65202188 46.34095001-52.13356876 72.40773439-15.92970157-4.34446406-30.41124845 13.03339219-26.06678439 31.85940314s17.37785625 20.27416563 30.41124845 13.03339219c17.37785625-8.68892813 20.27416563-23.17047501 7.24077344-39.10017657l-1.44815469-1.44815469c13.03339219-24.61862969 33.30755782-47.7891047 52.13356876-72.4077344 21.72232032-30.41124845 44.89279532-59.3743422 69.51142502-83.99297189l2.89630938 2.89630937c4.34446406 4.34446406 7.24077344 7.24077344 13.03339219 10.13708282-14.48154688 63.71880627-33.30755782 128.88576722-69.51142502 179.57118129-15.92970157-10.13708282-33.30755782 7.24077344-33.30755782 27.51493907 1.44815469 18.82601094 14.48154688 23.17047501 28.96309376 17.37785626 18.82601094-7.24077344 24.61862969-18.82601094 13.03339219-36.2038672 39.10017657-53.58172345 60.82249689-118.74868441 73.85588908-183.91564536 4.34446406 1.44815469 8.68892813 0 13.03339219-1.44815469-30.41124845 70.95957971-46.34095001 156.40070629-56.47803283 247.63445163 0 0-1.44815469 1.44815469 0 2.89630938l0 2.89630937c-20.27416563 243.28998756 18.82601094 508.30229544 20.27416563 524.23199701l20.27416563-2.89630938c0-2.89630938-39.10017657-262.1159985-21.72232031-502.50967669 2.89630938 0 5.79261875 0 7.24077343-1.44815468 18.82601094-4.34446406 26.06678438-17.37785625 17.37785626-34.75571251-2.89630938-5.79261875-5.79261875-8.68892813-10.13708282-10.13708282 4.34446406-13.03339219 7.24077344-24.61862969 10.13708282-36.20386719 8.68892813-34.75571251 17.37785625-69.51142502 21.72232032-105.71529222 2.89630938-20.27416563 4.34446406-41.99648595 4.34446406-65.16696095 2.89630938-5.79261875 5.79261875-11.5852375 7.24077344-18.82601095 5.79261875 20.27416563 11.5852375 40.54833126 15.92970157 59.37434221 5.79261875 34.75571251 10.13708282 70.95957971 14.48154688 107.1634469 1.44815469 10.13708282 1.44815469 18.82601094 2.89630937 28.96309376-13.03339219 1.44815469-23.17047501 20.27416563-18.82601094 36.20386719 5.79261875 17.37785625 20.27416563 17.37785625 31.85940313 8.68892813 14.48154688-11.5852375 17.37785625-26.06678438 1.44815469-39.10017657-1.44815469-1.44815469-2.89630938-2.89630938-5.79261875-2.89630938 0-11.5852375-1.44815469-21.72232032-2.89630938-31.85940313-4.34446406-36.2038672-7.24077344-70.95957971-14.48154688-107.1634469-4.34446406-24.61862969-11.5852375-49.23725939-20.27416563-75.30404377l15.92970157 15.92970156c4.34446406 4.34446406 7.24077344 7.24077344 8.68892813 11.58523751 34.75571251 40.54833126 65.16696095 88.33743596 86.88928127 139.02285003-5.79261875 5.79261875-10.13708282 15.92970157-7.24077344 27.51493907 4.34446406 18.82601094 17.37785625 20.27416563 30.41124845 13.03339219 17.37785625-8.68892813 20.27416563-23.17047501 7.24077344-39.10017657-7.24077344-7.24077344-14.48154688-8.68892813-20.27416563-8.68892813-21.72232032-50.68541408-50.68541408-99.92267346-88.33743597-140.47100472-2.89630938-2.89630938-5.79261875-5.79261875-8.68892812-11.5852375l-15.92970157-15.92970157c4.34446406-4.34446406 7.24077344-7.24077344 10.13708282-13.03339219 4.34446406 1.44815469 7.24077344 4.34446406 8.68892812 5.79261875 27.51493907 15.92970157 50.68541408 33.30755782 75.30404377 55.02987814 21.72232032 18.82601094 50.68541408 36.2038672 68.06327033 56.47803283-2.89630938 5.79261875-2.89630938 11.5852375-1.44815469 18.82601094 4.34446406 18.82601094 17.37785625 20.27416563 30.41124845 13.03339219 17.37785625-8.68892813 20.27416563-23.17047501 7.24077344-39.10017657-10.13708282-10.13708282-21.72232032-10.13708282-28.96309376-2.89630938-20.27416563-20.27416563-47.7891047-39.10017657-68.06327033-56.47803282-23.17047501-20.27416563-47.7891047-39.10017657-75.30404377-55.02987814-2.89630938-2.89630938-7.24077344-4.34446406-8.68892812-5.79261876 1.44815469-1.44815469 1.44815469-4.34446406 2.89630937-5.79261875 7.24077344 1.44815469 15.92970157 4.34446406 21.72232032 7.24077344 28.96309376 8.68892813 56.47803283 21.72232032 85.44112658 36.2038672 24.61862969 13.03339219 56.47803283 24.61862969 79.64850784 39.10017657-1.44815469 7.24077344-1.44815469 13.03339219 1.44815468 18.82601094 8.68892813 17.37785625 21.72232032 15.92970157 31.85940314 5.79261876 14.48154688-11.5852375 15.92970157-27.51493907-1.44815469-39.10017658-11.5852375-8.68892813-23.17047501-5.79261875-28.96309376 2.89630938-24.61862969-15.92970157-55.02987814-26.06678438-79.64850783-39.10017657-27.51493907-15.92970157-56.47803283-27.51493907-86.88928127-37.65202189-5.79261875-2.89630938-13.03339219-4.34446406-18.82601095-4.34446406 11.5852375-2.89630938 23.17047501-5.79261875 36.2038672-7.24077344 24.61862969-1.44815469 49.23725939 0 75.30404377 2.89630937 21.72232032 1.44815469 44.89279532 1.44815469 66.61511564 5.79261876-1.44815469 4.34446406 0 8.68892813 0 11.5852375 4.34446406 18.82601094 17.37785625 20.27416563 30.41124845 13.03339219 17.37785625-8.68892813 20.27416563-23.17047501 7.24077344-39.10017657-13.03339219-13.03339219-26.06678438-8.68892813-33.30755782 1.44815469-24.61862969-4.34446406-47.7891047-4.34446406-69.51142502-5.79261876-26.06678438-2.89630938-50.68541408-4.34446406-76.75219846-1.44815468-13.03339219 1.44815469-23.17047501 2.89630938-36.2038672 7.24077344 0-8.68892813-1.44815469-15.92970157-2.89630937-23.17047501 11.5852375-5.79261875 24.61862969-13.03339219 39.10017657-15.92970157 28.96309376-8.68892813 62.27065158-13.03339219 92.68190003-20.27416563 24.61862969-7.24077344 47.7891047-13.03339219 72.40773439-17.37785625 1.44815469 1.44815469 0 2.89630938 1.44815469 4.34446406 4.34446406 18.82601094 17.37785625 20.27416563 30.41124844 13.03339219 17.37785625-8.68892813 20.27416563-23.17047501 7.24077344-39.10017657-15.92970157-15.92970157-31.85940313-5.79261875-37.65202188 8.68892813-26.06678438 5.79261875-50.68541408 13.03339219-76.75219846 18.82601094-30.41124845 7.24077344-63.71880627 11.5852375-92.68190002 20.27416563-13.03339219 4.34446406-27.51493907 10.13708282-40.54833126 17.37785625l-1.44815469-1.44815468c8.68892813-14.48154688 17.37785625-26.06678438 27.51493907-39.10017658l20.27416563-20.27416563c26.06678438-23.17047501 57.92618751-43.44464064 88.33743596-59.3743422 5.79261875 11.5852375 17.37785625 11.5852375 27.51493907 4.34446406 17.37785625-8.68892813 20.27416563-23.17047501 7.24077344-39.10017657-17.37785625-20.27416563-40.54833126 0-37.65202189 23.17047501-31.85940313 17.37785625-65.16696095 39.10017657-92.68190002 63.71880626l-20.27416563 20.27416563c-11.5852375 11.5852375-18.82601094 24.61862969-26.06678438 37.65202189-4.34446406-4.34446406-8.68892813-5.79261875-14.48154688-8.68892813 2.89630938-8.68892813 5.79261875-17.37785625 11.5852375-26.06678438 10.13708282-10.13708282 24.61862969-33.30755782 40.54833126-52.13356876z m-79.64850783 291.07909226c-5.79261875 34.75571251-14.48154688 69.51142502-20.27416563 104.26713753-2.89630938 11.5852375-4.34446406 24.61862969-10.13708282 36.20386719 5.79261875-60.82249689 17.37785625-118.74868441 33.30755782-169.43409848 0 8.68892813-1.44815469 18.82601094-2.89630937 28.96309376z m21.72232032-85.44112659l-5.79261876-2.89630937c1.44815469-1.44815469 2.89630938-2.89630938 5.79261876-2.89630938-2.89630938 2.89630938-1.44815469 4.34446406 0 5.79261875z" fill="#22a595" p-id="26457"></path></svg>