<?xml version="1.0" standalone="no"?><!DOCTYPE svg PUBLIC "-//W3C//DTD SVG 1.1//EN" "http://www.w3.org/Graphics/SVG/1.1/DTD/svg11.dtd"><svg t="1701835627186" class="icon" viewBox="0 0 1024 1024" version="1.1" xmlns="http://www.w3.org/2000/svg" p-id="21024" width="64" height="64" xmlns:xlink="http://www.w3.org/1999/xlink"><path d="M967.6832 0H56.3232a55.808 55.808 0 0 0-40 16.96A57.984 57.984 0 0 0 0.0032 57.856v704.256a57.28 57.28 0 0 0 56.32 57.408h911.36a57.28 57.28 0 0 0 56.32-57.408V57.856c0-31.808-25.152-57.6-56.32-57.856z m-16.192 746.048H72.5152V74.816h878.976v671.232zM230.5312 896h562.944c25.664 0 38.528 7.232 38.528 21.76v43.904c0 14.528-12.8 21.76-38.528 21.76H230.5312c-25.664 0-38.528-7.232-38.528-21.76v-43.904c0-14.528 12.8-21.76 38.528-21.76z" fill="#000000" p-id="21025"></path><path d="M439.0432 390.208l124.608 140.48 11.52 16.128L803.8432 377.6l-47.36-66.56-168.512 124.416-142.976-160.96-55.872 51.328-191.552 157.888 50.752 64 190.72-157.504z" fill="#000000" p-id="21026"></path></svg>