<?xml version="1.0" standalone="no"?><!DOCTYPE svg PUBLIC "-//W3C//DTD SVG 1.1//EN" "http://www.w3.org/Graphics/SVG/1.1/DTD/svg11.dtd"><svg t="1701764288199" class="icon" viewBox="0 0 1024 1024" version="1.1" xmlns="http://www.w3.org/2000/svg" p-id="8198" xmlns:xlink="http://www.w3.org/1999/xlink" width="200" height="200"><path d="M720.592593 0a113.777778 113.777778 0 0 1 113.777777 113.777778v435.086222l-132.74074-0.037926-0.037926-0.037926a227.479704 227.479704 0 0 0-227.365926 219.022222l-0.151704 8.533334v171.728592l230.627556 0.037926 59.20237-63.184592v34.778074h97.545481c41.870222 0 79.113481-28.634074 92.463408-71.111111 13.312-42.477037-0.227556-89.353481-33.640296-116.394667l0.379259-0.455111L966.428444 682.666667c52.03437 47.141926 71.073185 124.017778 47.597037 192.512-23.476148 68.494222-84.423111 114.043259-152.613925 114.005333l-97.545482 0.037926V1024l-65.156741-69.518222 5.954371-6.371556L113.777778 948.148148a113.777778 113.777778 0 0 1-113.777778-113.777778V113.777778a113.777778 113.777778 0 0 1 113.777778-113.777778h606.814815z m108.35437 606.814815l66.522074 69.518222-66.522074 69.556148v-34.778074h-97.545482c-41.908148 0-79.113481 28.634074-92.425481 71.149037-13.349926 42.477037 0.227556 89.353481 33.678222 116.356741l-46.269629 49.455407c-52.03437-47.141926-71.035259-124.017778-47.559112-192.474074 23.476148-68.494222 84.385185-114.005333 152.576-114.005333h97.545482V606.814815zM360.296296 455.111111h-151.703703a56.888889 56.888889 0 0 0-5.461334 113.512296L208.592593 568.888889h151.703703a56.888889 56.888889 0 0 0 0-113.777778z m227.555556-227.555555h-379.259259a56.888889 56.888889 0 0 0-5.461334 113.512296L208.592593 341.333333h379.259259a56.888889 56.888889 0 0 0 0-113.777777z" p-id="8199" fill="#1c9b9f"></path></svg>