<?xml version="1.0" standalone="no"?><!DOCTYPE svg PUBLIC "-//W3C//DTD SVG 1.1//EN" "http://www.w3.org/Graphics/SVG/1.1/DTD/svg11.dtd"><svg t="1701764189767" class="icon" viewBox="0 0 1024 1024" version="1.1" xmlns="http://www.w3.org/2000/svg" p-id="6518" xmlns:xlink="http://www.w3.org/1999/xlink" width="200" height="200"><path d="M138.655625 992C80 992 32 944 32 885.344375V138.655625C32 80 80 32 138.655625 32h746.68875C944 32 992 80 992 138.655625v746.68875C992 944 944 992 885.344375 992H138.655625zM275.6 569.0478125h62.784375c50.64 1.6565625 92.83125-12.24 126.6-41.76 33.72-29.4478125 50.615625-67.9434375 50.615625-115.44 0-46.895625-14.424375-82.92-43.295625-108.1434375-28.84875-25.2-69.4321875-37.8-121.68-37.8H213.104375V749.984375h62.495625V569.024375z m301.8721875 106.224375v62.52c26.6634375 13.535625 57.9121875 20.28 93.7678125 20.28 41.2078125 0 74.8078125-9.0965625 100.7521875-27.3365625 25.9678125-18.24 38.9278125-43.15125 38.9278125-74.83125 0-22.704375-6.7921875-41.76-20.3278125-57.1921875-13.56-15.4078125-39.5765625-30.3121875-78.144375-44.6878125-30.384375-12.0721875-50.015625-21.96-58.8721875-29.68875-8.88-7.68-13.295625-18.43125-13.295625-32.16 0-13.99125 6.144375-25.2 18.43125-33.7678125 12.313125-8.5434375 28.224375-12.815625 47.833125-12.815625 32.6878125 0 61.9678125 8.3278125 87.815625 24.984375v-59.0409375c-25.2478125-10.2-52.5121875-15.31125-81.9121875-15.31125-37.895625 0-69.84 9.215625-95.76 27.646875-25.92 18.4565625-38.88 42.9609375-38.88 73.584375 0 21.48 5.7121875 39.744375 17.16 54.864375 11.4721875 15.095625 36.36 30.335625 74.6878125 45.76875 31.8721875 11.8790625 53.015625 22.15125 63.4321875 30.79125 10.44 8.64 15.624375 19.63125 15.624375 32.9521875 0 31.2721875-23.8565625 46.895625-71.56875 46.895625-35.615625 0-68.855625-11.16-99.67125-33.455625zM275.6 320.9121875h63.744375c73.75125 0 110.64 31.1521875 110.64 93.43125 0 32.08875-9.9121875 56.7121875-29.68875 73.8965625-19.8 17.2078125-48.7434375 25.775625-86.88 25.775625h-57.84V320.9121875z" fill="#2c2c2c" p-id="6519"></path></svg>