<?xml version="1.0" standalone="no"?><!DOCTYPE svg PUBLIC "-//W3C//DTD SVG 1.1//EN" "http://www.w3.org/Graphics/SVG/1.1/DTD/svg11.dtd"><svg t="1701763969735" class="icon" viewBox="0 0 1230 1024" version="1.1" xmlns="http://www.w3.org/2000/svg" p-id="14995" xmlns:xlink="http://www.w3.org/1999/xlink" width="240.234375" height="200"><path d="M84.425532 42.212766a40.851064 40.851064 0 0 0-40.851064 40.851064v857.87234a40.851064 40.851064 0 0 0 40.851064 40.851064h1062.127659a40.851064 40.851064 0 0 0 40.851064-40.851064V83.06383a40.851064 40.851064 0 0 0-40.851064-40.851064h-1062.127659z m0-40.851064h1062.127659c45.121362 0 81.702128 36.580766 81.702128 81.702128v857.87234c0 45.121362-36.580766 81.702128-81.702128 81.702128h-1062.127659c-45.121362 0-81.702128-36.580766-81.702128-81.702128V83.06383c0-45.121362 36.580766-81.702128 81.702128-81.702128zM962.723404 593.702128h81.702128v204.255319h-204.255319V593.702128h81.702127V532.425532h-285.957446V593.702128h81.702127v204.255319h-204.255319V593.702128h81.702128V532.425532h-285.957447V593.702128h81.702128v204.255319h-204.25532V593.702128h81.702128V491.574468h326.808511V430.297872h-81.702128V226.042553h204.255319V430.297872h-81.702127v61.276596h326.80851V593.702128z" fill="#333333" p-id="14996"></path></svg>