<?xml version="1.0" standalone="no"?><!DOCTYPE svg PUBLIC "-//W3C//DTD SVG 1.1//EN" "http://www.w3.org/Graphics/SVG/1.1/DTD/svg11.dtd"><svg t="1701834827575" class="icon" viewBox="0 0 1025 1024" version="1.1" xmlns="http://www.w3.org/2000/svg" p-id="6260" xmlns:xlink="http://www.w3.org/1999/xlink" width="200.1953125" height="200"><path d="M0 360.608V146.304v-0.096c0-39.104 30.688-71.04 69.312-73.056H585.472c13.856 0 26.432 5.6 35.552 14.624l385.472 385.472c11.552 11.616 18.688 27.648 18.688 45.344s-7.136 33.728-18.688 45.344L634.208 935.488a50.24 50.24 0 0 1-35.52 14.624H69.568a73.184 73.184 0 0 1-69.472-72.384v-219.456h512l138.24-134.592a13.184 13.184 0 0 0-0.032-18.304l-138.24-134.592h-512z" p-id="6261"></path></svg>