<?xml version="1.0" standalone="no"?><!DOCTYPE svg PUBLIC "-//W3C//DTD SVG 1.1//EN" "http://www.w3.org/Graphics/SVG/1.1/DTD/svg11.dtd"><svg t="1701675702853" class="icon" viewBox="0 0 1024 1024" version="1.1" xmlns="http://www.w3.org/2000/svg" p-id="20527" xmlns:xlink="http://www.w3.org/1999/xlink" width="200" height="200"><path d="M0 512v512h1024V0H0v512zM656 192c9.6 16 70.4 32 131.2 32 60.8 0 108.8 16 108.8 35.2 0 19.2-99.2 28.8-278.4 25.6-185.6-3.2-281.6 6.4-291.2 32-6.4 19.2 3.2 35.2 22.4 35.2s35.2 22.4 35.2 48-12.8 48-32 48-32 89.6-32 208c0 208-60.8 300.8-67.2 102.4-3.2-54.4-9.6-76.8-19.2-44.8-6.4 28.8-35.2 54.4-60.8 54.4-54.4 0-54.4 6.4 3.2-163.2 32-89.6 38.4-144 16-150.4-51.2-19.2-38.4-102.4 16-102.4 25.6 0 48-16 48-32 0-19.2-22.4-32-48-32S160 275.2 160 259.2c0-51.2 102.4-70.4 246.4-48 92.8 12.8 137.6 9.6 137.6-16 0-44.8 86.4-48 112-3.2z m112 224c0 41.6 22.4 64 64 64 57.6 0 64 22.4 64 192 0 150.4-9.6 192-48 192-35.2 0-48-41.6-54.4-153.6-3.2-137.6-6.4-140.8-16-32-12.8 118.4-19.2 121.6-137.6 121.6-118.4 0-124.8-3.2-137.6-121.6-9.6-108.8-12.8-105.6-16 32-6.4 112-19.2 153.6-54.4 153.6-38.4 0-48-41.6-48-188.8 0-160 9.6-188.8 64-204.8 35.2-9.6 64-38.4 64-67.2 0-38.4 32-51.2 128-51.2 105.6 0 128 9.6 128 64z" p-id="20528" fill="#707070"></path><path d="M576 448c0 16 22.4 32 48 32s48-16 48-32c0-19.2-22.4-32-48-32s-48 12.8-48 32zM576 640c0 35.2 22.4 64 48 64s48-28.8 48-64-22.4-64-48-64-48 28.8-48 64z" p-id="20529" fill="#707070"></path></svg>